<?xml version="1.0" encoding="iso-8859-1"?>
<!-- Generator: Adobe Illustrator 19.0.0, SVG Export Plug-In . SVG Version: 6.00 Build 0)  -->
<svg version="1.1" id="Layer_1" xmlns="http://www.w3.org/2000/svg" xmlns:xlink="http://www.w3.org/1999/xlink" x="0px" y="0px"
	 viewBox="0 0 512 512" style="enable-background:new 0 0 512 512;" xml:space="preserve">
<g>
	<g>
		<g>
			<path d="M331.696,104.694c4.464-0.119,7.985-3.833,7.867-8.297c-1.146-43.074,32.964-79.052,76.039-80.199
				c20.884-0.558,40.701,7.049,55.849,21.41s23.796,33.763,24.352,54.629c0.555,20.866-7.048,40.699-21.41,55.847
				s-33.763,23.796-54.63,24.352c-19.646,0.513-38.678-6.316-53.491-19.263c-3.363-2.938-8.468-2.597-11.407,0.766
				c-2.938,3.361-2.594,8.468,0.767,11.406c17.243,15.07,39.177,23.286,62.021,23.286c0.844,0,1.693-0.012,2.539-0.034
				c25.184-0.67,48.599-11.108,65.933-29.389c17.333-18.281,26.51-42.219,25.839-67.402c-0.67-25.183-11.108-48.599-29.39-65.932
				C464.291,8.542,440.32-0.651,415.173,0.036c-51.988,1.384-93.156,44.805-91.772,96.792
				C323.52,101.291,327.259,104.808,331.696,104.694z"/>
			<path d="M422.575,323.496c-22.969-1.195-45.532,6.02-63.527,20.312c-3.496,2.778-4.079,7.862-1.302,11.359
				c2.776,3.496,7.861,4.078,11.359,1.302c14.905-11.841,33.603-17.815,52.63-16.827c43.033,2.236,76.224,39.064,73.989,82.096
				c-1.082,20.845-10.217,40.022-25.724,53.996c-15.507,13.974-35.521,21.077-56.372,19.991
				c-20.845-1.083-40.022-10.22-53.997-25.725c-13.974-15.506-21.074-35.525-19.991-56.371c0.231-4.459-3.196-8.261-7.655-8.493
				c-4.412-0.228-8.261,3.195-8.493,7.654c-1.306,25.158,7.263,49.32,24.128,68.033c16.866,18.714,40.009,29.74,65.169,31.047
				c1.675,0.087,3.343,0.13,5.007,0.13c23.342-0.001,45.56-8.514,63.028-24.257c18.714-16.866,29.74-40.009,31.048-65.167
				C514.57,370.641,474.511,326.193,422.575,323.496z"/>
			<path d="M417.682,468.881c28.231,0,51.2-22.968,51.2-51.199s-22.969-51.2-51.2-51.2c-17.108,0-32.285,8.438-41.587,21.367
				l-232.94-116.469c1.534-4.857,2.359-10.023,2.359-15.38c0-5.357-0.828-10.525-2.359-15.382L376.094,124.15
				c9.302,12.931,24.478,21.367,41.588,21.367c28.231,0,51.2-22.968,51.2-51.2c0-28.232-22.969-51.199-51.2-51.199
				c-28.231,0-51.199,22.968-51.199,51.199c0,5.357,0.827,10.523,2.36,15.38l-232.94,116.47
				c-9.302-12.929-24.479-21.367-41.587-21.367c-28.231,0-51.2,22.969-51.2,51.2s22.969,51.199,51.2,51.199
				c17.111,0,32.286-8.436,41.588-21.367l232.938,116.469c-1.533,4.857-2.36,10.024-2.36,15.382
				C366.483,445.914,389.451,468.881,417.682,468.881z M417.682,382.651c19.317,0,35.032,15.715,35.032,35.032
				c0,19.317-15.715,35.031-35.032,35.031c-19.316,0-35.03-15.715-35.03-35.031C382.652,398.367,398.366,382.651,417.682,382.651z
				 M417.682,59.287c19.317,0,35.032,15.715,35.032,35.031c0,19.316-15.715,35.032-35.032,35.032
				c-19.316,0-35.03-15.716-35.03-35.032C382.652,75.001,398.366,59.287,417.682,59.287z M94.316,291.031
				c-19.317,0-35.032-15.715-35.032-35.031s15.715-35.032,35.032-35.032c19.316,0,35.031,15.716,35.031,35.032
				S113.632,291.031,94.316,291.031z"/>
			<path d="M129.257,325.896c-10.928,5.475-22.683,8.25-34.941,8.25c-43.091,0-78.147-35.056-78.147-78.146
				c0-43.09,35.056-78.147,78.147-78.147c12.258,0,24.013,2.776,34.942,8.25c3.994,2.002,8.85,0.385,10.848-3.607
				c2-3.991,0.385-8.85-3.607-10.849c-13.196-6.611-27.388-9.963-42.183-9.963C42.309,161.685,0,203.995,0,256
				s42.31,94.315,94.315,94.315c14.795,0,28.988-3.352,42.183-9.963c3.991-2.001,5.606-6.858,3.607-10.849
				C138.107,325.512,133.25,323.898,129.257,325.896z"/>
		</g>
	</g>
</g>
<g>
</g>
<g>
</g>
<g>
</g>
<g>
</g>
<g>
</g>
<g>
</g>
<g>
</g>
<g>
</g>
<g>
</g>
<g>
</g>
<g>
</g>
<g>
</g>
<g>
</g>
<g>
</g>
<g>
</g>
</svg>
