<?xml version="1.0" encoding="iso-8859-1"?>
<!-- Generator: Adobe Illustrator 18.0.0, SVG Export Plug-In . SVG Version: 6.00 Build 0)  -->
<!DOCTYPE svg PUBLIC "-//W3C//DTD SVG 1.1//EN" "http://www.w3.org/Graphics/SVG/1.1/DTD/svg11.dtd">
<svg version="1.1" id="Capa_1" xmlns="http://www.w3.org/2000/svg" xmlns:xlink="http://www.w3.org/1999/xlink" x="0px" y="0px"
	 viewBox="0 0 489.877 489.877" style="enable-background:new 0 0 489.877 489.877;" xml:space="preserve">
<g>
	<path d="M131.994,371.842l-12.247-9.422c1.015-0.631,2.123-1.132,3.123-1.801c3.116-2.123,4.385-6.147,3.023-9.68l-2.462-6.398
		l-10.644-28.204c-1.668-4.418-5.629-7.584-10.306-8.232c-0.021-0.003-0.039-0.006-0.054-0.01l-10.478,26.01
		c-3.031,7.434-10.17,12.23-18.195,12.23c-8.017,0-15.125-4.797-18.188-12.223l-10.471-26.018c-0.02,0.005-0.046,0.011-0.081,0.016
		c-4.628,0.679-8.526,3.814-10.189,8.186l-10.741,28.244l-2.446,6.398c-1.377,3.549-0.116,7.541,3.023,9.68
		c14.025,9.548,30.905,15.162,49.092,15.162c11.532,0,22.434-2.465,32.512-6.551c0.254,2.035,1.285,3.978,3.047,5.327l12.933,9.946
		c1.461,1.123,3.162,1.659,4.861,1.659c2.409,0,4.778-1.067,6.34-3.112C136.125,379.549,135.487,374.535,131.994,371.842z"/>
	<path d="M157.859,391.756c-3.509-2.689-8.517-2.034-11.202,1.468c-2.686,3.495-2.039,8.51,1.469,11.2l12.932,9.953
		c0.484,0.367,1.077,0.297,1.593,0.539l5.786-15.023L157.859,391.756z"/>
	<path d="M329.93,391.756l-10.355,7.966c0,0,0.015,0.007,0.015,0.015l5.801,15.103c0.423-0.228,0.939-0.151,1.346-0.462
		l12.933-9.953c3.509-2.69,4.147-7.705,1.462-11.2C338.439,389.722,333.415,389.081,329.93,391.756z"/>
	<path d="M304.896,176.799c-4.431,0-7.986,3.586-7.986,8c0,4.417,3.555,8,7.986,8h15.972c4.4,0,7.985-3.583,7.985-8
		c0-4.414-3.585-8-7.985-8H304.896z"/>
	<path d="M225.022,192.799c4.393,0,7.986-3.583,7.986-8c0-4.414-3.593-8-7.986-8h-15.979c-4.432,0-7.986,3.586-7.986,8
		c0,4.417,3.554,8,7.986,8H225.022z"/>
	<path d="M177.093,176.799h-15.972c-4.432,0-7.986,3.586-7.986,8c0,4.417,3.554,8,7.986,8h15.972c4.4,0,7.994-3.583,7.994-8
		C185.086,180.385,181.493,176.799,177.093,176.799z"/>
	<path d="M256.973,192.799h15.972c4.4,0,7.985-3.583,7.985-8c0-4.414-3.585-8-7.985-8h-15.972c-4.431,0-7.993,3.586-7.993,8
		C248.98,189.216,252.543,192.799,256.973,192.799z"/>
	<path d="M368.797,192.799c4.393,0,7.985-3.583,7.985-8c0-4.414-3.592-8-7.985-8h-15.98c-4.432,0-7.985,3.586-7.985,8
		c0,4.417,3.554,8,7.985,8H368.797z"/>
	<path d="M129.17,176.799h-15.972c-4.432,0-7.994,3.586-7.994,8c0,4.417,3.562,8,7.994,8h15.972c4.4,0,7.985-3.583,7.985-8
		C137.156,180.385,133.571,176.799,129.17,176.799z"/>
	<path d="M416.72,192.799c4.4,0,7.986-3.583,7.986-8c0-4.414-3.585-8-7.986-8h-15.979c-4.424,0-7.986,3.586-7.986,8
		c0,4.417,3.562,8,7.986,8H416.72z"/>
	<path d="M446.366,211.486v-15.976c0-4.414-3.583-7.987-8-7.987c-4.415,0-8,3.573-8,7.987v15.976c0,4.414,3.585,7.988,8,7.988
		C442.783,219.475,446.366,215.9,446.366,211.486z"/>
	<path d="M81.248,192.799c4.401,0,7.986-3.583,7.986-8c0-4.414-3.585-8-7.986-8h-15.98c-4.431,0-7.985,3.586-7.985,8
		c0,4.417,3.555,8,7.985,8H81.248z"/>
	<path d="M48.366,219.475c4.416,0,8-3.574,8-7.988v-11.452c0-4.414-3.584-7.987-8-7.987s-8,3.573-8,7.987v11.452
		C40.366,215.9,43.95,219.475,48.366,219.475z"/>
	<path d="M466.08,343.928l-9.725-25.667c-1.946-5.138-6.791-8.609-12.281-8.801c-0.15-0.005-0.26-0.011-0.32-0.018
		c-2.385,13.414-14.056,23.9-28.157,23.9c-14.102,0-25.773-10.478-28.158-23.9c-0.044,0.006-0.12,0.011-0.224,0.015
		c-5.435,0.22-10.223,3.65-12.179,8.726l-9.923,25.746l-2.432,6.387c-1.469,3.761-0.061,8.003,3.309,10.195
		c0.839,0.547,1.778,0.943,2.648,1.467l-12.841,9.865c-3.493,2.693-4.131,7.707-1.446,11.209c1.561,2.046,3.932,3.113,6.332,3.113
		c1.7,0,3.401-0.537,4.87-1.66l12.933-9.945c1.993-1.537,2.947-3.84,2.978-6.178c10.579,4.305,22.026,6.887,34.135,6.887
		c18.279,0,35.305-5.452,49.607-14.758c3.369-2.185,4.747-6.443,3.308-10.195L466.08,343.928z"/>
	<path d="M401.366,298.723v11.076h-3.772c2.154,8,9.232,14.196,18.003,14.196c8.763,0,15.849-6.196,18.002-14.196h-3.233v-11.076
		c9-6.996,16.026-20.468,16.026-36.091c0-22.738-13.813-41.248-30.739-41.248c-16.925,0-30.563,18.51-30.563,41.248
		C385.09,278.255,391.366,291.727,401.366,298.723z M415.596,231.072c11.386,0,20.995,14.453,20.995,31.56
		c0,17.107-9.609,31.543-20.995,31.543c-11.386,0-21.003-14.436-21.003-31.543C394.593,245.525,404.21,231.072,415.596,231.072z"/>
	<path d="M319.167,443.216l-14.494-37.754c-2.008-5.226-6.093-8.947-10.933-10.866c-2.808-1.443-5.673-2.41-9.013-2.566
		l-28.362,69.922v-21.771c0-4.064-3.686-7.382-7.755-7.382h-9.425c-4.085,0-7.82,3.317-7.82,7.382v21.046l-28.044-69.197
		c-3.331,0.156-6.294,1.107-9.087,2.558c-4.839,1.92-8.867,5.632-10.89,10.875l-14.465,37.754l-3.624,9.499
		c-2.155,5.602-0.086,11.92,4.938,15.188c21.279,13.846,46.618,21.975,73.822,21.975c27.241,0,52.578-8.129,73.858-21.975
		c5.023-3.26,7.087-9.602,4.948-15.188L319.167,443.216z"/>
	<path d="M198.219,322.194c0,23.292,9.794,43.339,24.057,53.744c6.455,4.718,13.756,7.651,21.618,7.651
		c7.863,0,15.149-2.934,21.627-7.651c14.24-10.405,24.057-30.452,24.057-53.744c0-33.854-20.503-61.396-45.684-61.396
		C218.714,260.799,198.219,288.341,198.219,322.194z M243.894,275.223c16.941,0,31.267,21.513,31.267,46.972
		c0,25.468-14.325,46.972-31.267,46.972c-16.94,0-31.258-21.504-31.258-46.972C212.636,296.735,226.954,275.223,243.894,275.223z"/>
	<path d="M250.418,398.799h-12.793c-3.932,0-7.547,2.206-9.44,5.637c-1.9,3.44-1.792,7.67,0.3,11.001l3.085,5.136
		c1.185,1.871,3.247,3.227,5.462,3.227h13.995c2.216,0,4.278-1.338,5.447-3.209l3.085-5.022c2.093-3.331,2.216-7.643,0.315-11.083
		C257.965,401.055,254.35,398.799,250.418,398.799z"/>
	<path d="M266.626,73.799h20.283c1.481,2,3.456,3.026,4.456,4.244v9.756h-4.184l9.136,22.456c3.072,7.48,15.281,7.435,18.354-0.063
		l9.12-22.393h-4.425v-9.765c2-1.218,3.232-2.235,4.699-4.235h20.324c1.74,0,3.355-0.99,4.158-2.553
		c0.813-1.561,0.655-3.446-0.364-4.864c-4.671-6.516-8.277-15.095-9.309-22.313c-0.555-3.879-7.263-42.794-33.387-42.794
		c-23.666,0-33.386,31.866-33.386,42.935c0,7.271-4.622,15.695-9.269,22.17c-1.027,1.418-1.176,3.308-0.373,4.868
		C263.263,72.809,264.878,73.799,266.626,73.799z M305.586,31.471c10.551,0,18.982,5.769,19.637,13
		c-0.39,15.694-9.218,28.777-19.737,28.777c-10.378,0-19.106-12.813-19.68-28.291C286.088,37.492,294.769,31.471,305.586,31.471z"/>
	<path d="M256.612,140.393c13.938,9.506,30.768,15.1,48.874,15.1c18.122,0,34.935-5.594,48.891-15.1
		c3.107-2.116,4.382-6.111,3.007-9.631l-2.452-6.373l-11.417-29.444c-1.517-3.911-5.285-6.483-9.48-6.472l-10.427,25.529
		c-3.039,7.405-10.129,12.174-18.122,12.174c-7.959,0-15.082-4.769-18.106-12.168l-10.41-25.543
		c-4.871,1.322-8.825,4.877-10.658,9.578l-10.271,26.346l-2.452,6.373C252.247,134.289,253.49,138.268,256.612,140.393z"/>
	<path d="M112.791,138.912c3.372-2.191,4.751-6.443,3.323-10.189l-2.442-6.377l-9.127-24.102
		c-2.134-5.601-7.207-9.445-13.156-10.445c-0.001,0-0.001,0-0.002,0c-2.377,14-14.03,23.834-28.109,23.834
		c-14.086,0-25.74-10.211-28.132-23.617c-5.9,0.754-10.902,4.722-13.035,10.274l-9.226,24.038l-2.442,6.386
		c-1.454,3.754-0.058,7.994,3.314,10.193c14.286,9.28,31.264,14.731,49.521,14.731C81.535,153.639,98.513,148.192,112.791,138.912z"
		/>
	<path d="M48.366,77.217v10.582h-3.079c2.176,8,9.228,14.156,17.991,14.156c8.755,0,15.816-6.156,17.983-14.156h-3.895V77.217
		c10-6.981,16.33-20.432,16.33-36.036C93.696,18.478,80.057,0,63.169,0C46.275,0,32.386,18.478,32.386,41.181
		C32.386,56.785,39.366,70.235,48.366,77.217z M63.277,9.676c11.348,0,20.965,14.427,20.965,31.505
		c0,17.079-9.618,31.497-20.965,31.497c-11.354,0-20.956-14.418-20.956-31.497C42.321,24.103,51.923,9.676,63.277,9.676z"/>
	<path d="M134.868,138.912c14.286,9.28,31.264,14.729,49.52,14.729c18.257,0,35.236-5.448,49.513-14.729
		c3.372-2.191,4.751-6.443,3.323-10.189l-2.442-6.377l-9.127-24.102c-2.134-5.601-7.207-9.445-13.156-10.445
		c-0.001,0-0.002,0-0.003,0c-2.376,14-14.03,23.834-28.109,23.834c-14.086,0-25.74-10.211-28.132-23.617
		c-5.9,0.754-10.902,4.722-13.035,10.274l-9.226,24.038l-2.442,6.386C130.1,132.468,131.496,136.713,134.868,138.912z"/>
	<path d="M170.366,77.217v10.582h-3.968c2.176,8,9.228,14.156,17.991,14.156c8.755,0,15.816-6.156,17.983-14.156h-3.006V77.217
		c9-6.981,15.885-20.432,15.885-36.036C215.251,18.478,201.39,0,184.502,0c-16.894,0-30.45,18.478-30.45,41.181
		C154.053,56.785,160.366,70.235,170.366,77.217z M184.388,9.676c11.348,0,20.965,14.427,20.965,31.505
		c0,17.079-9.618,31.497-20.965,31.497c-11.354,0-20.956-14.418-20.956-31.497C163.432,24.103,173.034,9.676,184.388,9.676z"/>
	<path d="M479.447,128.723l-2.442-6.377l-9.127-24.102c-2.134-5.601-7.207-9.445-13.156-10.445c-0.001,0-0.001,0-0.003,0
		c-2.376,14-14.03,23.834-28.109,23.834c-14.086,0-25.74-10.211-28.132-23.617c-5.9,0.754-10.902,4.722-13.035,10.274l-9.225,24.038
		l-2.442,6.386c-1.454,3.754-0.058,7.994,3.314,10.193c14.286,9.28,31.264,14.731,49.521,14.731
		c18.257,0,35.236-5.447,49.513-14.727C479.496,136.72,480.875,132.469,479.447,128.723z"/>
	<path d="M412.366,77.217v10.582h-3.746c2.176,8,9.227,14.156,17.991,14.156c8.755,0,15.816-6.156,17.983-14.156h-3.228V77.217
		c9-6.981,15.996-20.432,15.996-36.036C457.362,18.478,443.557,0,426.669,0c-16.894,0-30.533,18.478-30.533,41.181
		C396.136,56.785,402.366,70.235,412.366,77.217z M426.61,9.676c11.348,0,20.965,14.427,20.965,31.505
		c0,17.079-9.618,31.497-20.965,31.497c-11.354,0-20.956-14.418-20.956-31.497C405.654,24.103,415.256,9.676,426.61,9.676z"/>
	<path d="M92.312,293.799h20.324c1.74,0,3.355-0.953,4.158-2.514c0.813-1.56,0.655-3.428-0.364-4.846
		c-4.671-6.516-8.277-15.086-9.309-22.305c-0.555-3.879-7.263-42.789-33.387-42.789c-23.666,0-33.386,31.868-33.386,42.938
		c0,7.271-4.622,15.695-9.269,22.171c-1.027,1.418-1.176,3.271-0.373,4.831c0.803,1.561,2.418,2.514,4.167,2.514h20.283
		c1.481,2,3.208,3.102,5.208,4.319v9.681H55.43l9.136,22.493c3.072,7.481,15.281,7.415,18.354-0.082l9.12-22.411h-4.673v-9.689
		C89.366,296.893,90.846,295.799,92.312,293.799z M73.734,293.323c-10.378,0-19.106-12.814-19.68-28.291
		c0.282-7.464,8.962-13.485,19.78-13.485c10.551,0,18.982,5.768,19.637,12.999C93.082,280.24,84.253,293.323,73.734,293.323z"/>
</g>
<g>
</g>
<g>
</g>
<g>
</g>
<g>
</g>
<g>
</g>
<g>
</g>
<g>
</g>
<g>
</g>
<g>
</g>
<g>
</g>
<g>
</g>
<g>
</g>
<g>
</g>
<g>
</g>
<g>
</g>
</svg>
